<?xml version="1.0" ?><svg style="enable-background:new 0 0 48 48;" version="1.1" viewBox="0 0 48 48" xml:space="preserve" xmlns="http://www.w3.org/2000/svg" xmlns:xlink="http://www.w3.org/1999/xlink"><style type="text/css">
	.st0{fill:none;stroke:#505050;stroke-width:2;stroke-miterlimit:10;}
	.st1{fill:none;stroke:#505050;stroke-width:2;stroke-linejoin:round;stroke-miterlimit:10;}
</style><g id="_x34_8x48"/><g id="icons"><g><line class="st0" x1="32" x2="35" y1="24" y2="24.7"/><line class="st0" x1="24" x2="30" y1="22" y2="23.5"/><polyline class="st0" points="17,22.8 20,21 22,21.5   "/><line class="st0" x1="11.9" x2="15" y1="26" y2="24.1"/><polyline class="st0" points="37,25.2 40,26 40,27 27,35 7,30 7,29 10.2,27   "/><polygon class="st0" points="40,7 27,15 7,10 7,9 20,1 40,6   "/><line class="st0" x1="7" x2="7" y1="10" y2="29"/><line class="st0" x1="27" x2="27" y1="15" y2="35"/><line class="st0" x1="20" x2="20" y1="18" y2="21"/><line class="st0" x1="20" x2="20" y1="1" y2="4"/><line class="st0" x1="20" x2="20" y1="6" y2="10"/><line class="st0" x1="20" x2="20" y1="12" y2="16"/><line class="st0" x1="40" x2="40" y1="6" y2="26"/><path class="st0" d="M3.8,22.1C1.4,24.2,1,26.8,1,29.5C1,37,10.1,43,23.1,43H25"/><path class="st0" d="M43,21.3c3.1,2.3,4,5.1,4,8.2c0,6.6-7.6,12.1-19,13.3"/><polyline class="st0" points="21,39 25,43 21,47   "/></g></g></svg>